#N canvas 579 159 710 483 24;
#X obj 97 348 dac~;
#X obj 160 264 tgl 25 0 empty empty empty 17 7 0 10 -204786 -1 -1 0
0.1;
#X obj 97 299 *~;
#X obj 98 235 osc~;
#X floatatom 98 187 5 0 0 0 - - -;
#X obj 98 138 mtof;
#X floatatom 98 90 5 0 0 0 - - -;
#X msg 12 36 60;
#X msg 70 36 62;
#X msg 130 36 64;
#X msg 186 36 65;
#X msg 248 36 67;
#X text 198 136 <--- zamiana skali MIDI na skalę częstotliwości
;
#X text 204 88 <--- wysokość dźwięku w skali MIDI w;
#X text 200 187 <--- częstotliwość dźwięku;
#X text 197 343 <--- wyjście;
#X text 197 294 <--- zmiana amplitudy sygnału;
#X text 212 260 <--- włącz/wyłącz dźwięk;
#X text 200 228 <--- generator fali sinusoidalnej;
#X text 328 38 <--- wybrane wysokości dźwięku;
#X connect 1 0 2 1;
#X connect 2 0 0 0;
#X connect 2 0 0 1;
#X connect 3 0 2 0;
#X connect 4 0 3 0;
#X connect 5 0 4 0;
#X connect 6 0 5 0;
#X connect 7 0 6 0;
#X connect 8 0 6 0;
#X connect 9 0 6 0;
#X connect 10 0 6 0;
#X connect 11 0 6 0;
