#N canvas 579 159 361 282 24;
#N canvas 699 271 493 483 play_melody 0;
#X obj 127 359 *~;
#X obj 127 325 osc~;
#X obj 127 288 mtof;
#X floatatom 127 250 5 0 0 0 - - -;
#X msg 41 196 60;
#X msg 99 196 62;
#X msg 159 196 64;
#X msg 215 196 65;
#X msg 277 196 67;
#X obj 59 19 inlet;
#X obj 59 57 metro 300;
#X obj 59 103 random 5;
#X obj 59 144 sel 0 1 2 3 4;
#X obj 359 103 random 2;
#X obj 359 144 sel 0 1;
#X msg 406 196 600;
#X msg 359 196 300;
#X obj 127 420 outlet~;
#X obj 206 254 * 0.2;
#X msg 206 288 \$1 50;
#X obj 206 325 line~;
#X connect 0 0 17 0;
#X connect 1 0 0 0;
#X connect 2 0 1 0;
#X connect 3 0 2 0;
#X connect 4 0 3 0;
#X connect 5 0 3 0;
#X connect 6 0 3 0;
#X connect 7 0 3 0;
#X connect 8 0 3 0;
#X connect 9 0 10 0;
#X connect 9 0 18 0;
#X connect 10 0 11 0;
#X connect 10 0 13 0;
#X connect 11 0 12 0;
#X connect 12 0 4 0;
#X connect 12 1 5 0;
#X connect 12 2 6 0;
#X connect 12 3 7 0;
#X connect 12 4 8 0;
#X connect 13 0 14 0;
#X connect 14 0 16 0;
#X connect 14 1 15 0;
#X connect 15 0 10 1;
#X connect 16 0 10 1;
#X connect 18 0 19 0;
#X connect 19 0 20 0;
#X connect 20 0 0 1;
#X restore 30 65 pd play_melody;
#X obj 30 201 output~;
#X obj 30 24 tgl 25 0 empty empty empty 17 7 0 10 -204786 -1 -1 0 1
;
#X obj 131 201 writesf~;
#X msg 131 114 open recording.wav;
#X msg 140 156 start;
#X msg 212 156 stop;
#X connect 0 0 1 0;
#X connect 0 0 1 1;
#X connect 0 0 3 0;
#X connect 2 0 0 0;
#X connect 4 0 3 0;
#X connect 5 0 3 0;
#X connect 6 0 3 0;
