#N canvas 1137 179 364 255 10;
#X obj 31 22 key;
#X obj 280 88 keyup;
#X msg 31 80 60;
#X msg 58 103 62;
#X msg 85 80 64;
#X msg 113 103 65;
#X msg 140 80 67;
#X msg 167 103 69;
#X msg 195 80 71;
#X msg 222 103 72;
#X obj 31 189 outlet;
#X msg 178 143 0.5;
#X msg 280 143 0;
#X obj 266 189 outlet;
#X obj 31 54 select 113 119 101 114 116 121 117 105;
#X connect 0 0 14 0;
#X connect 1 0 12 0;
#X connect 2 0 10 0;
#X connect 3 0 10 0;
#X connect 4 0 10 0;
#X connect 5 0 10 0;
#X connect 6 0 10 0;
#X connect 7 0 10 0;
#X connect 8 0 10 0;
#X connect 9 0 10 0;
#X connect 11 0 13 0;
#X connect 12 0 13 0;
#X connect 14 0 2 0;
#X connect 14 0 11 0;
#X connect 14 1 3 0;
#X connect 14 1 11 0;
#X connect 14 2 4 0;
#X connect 14 2 11 0;
#X connect 14 3 5 0;
#X connect 14 3 11 0;
#X connect 14 4 6 0;
#X connect 14 4 11 0;
#X connect 14 5 7 0;
#X connect 14 5 11 0;
#X connect 14 6 8 0;
#X connect 14 6 11 0;
#X connect 14 7 9 0;
#X connect 14 7 11 0;
